<svg xmlns="http://www.w3.org/2000/svg" xmlns:xlink="http://www.w3.org/1999/xlink" width="500" zoomAndPan="magnify" viewBox="0 0 375 374.999991" height="500" preserveAspectRatio="xMidYMid meet" version="1.2"><defs><clipPath id="49a2c6b940"><path d="M 22 51.402344 L 353 51.402344 L 353 323.652344 L 22 323.652344 Z M 22 51.402344 "/></clipPath></defs><g id="02e253db6b"><g clip-rule="nonzero" clip-path="url(#49a2c6b940)"><path style=" stroke:none;fill-rule:nonzero;fill:#c5dbff;fill-opacity:1;" d="M 342.089844 156.347656 C 339.519531 161.703125 334.648438 166.246094 329.695312 167.914062 C 327.636719 168.609375 326.53125 170.839844 327.226562 172.898438 C 327.78125 174.535156 329.304688 175.570312 330.941406 175.570312 C 331.363281 175.570312 331.792969 175.507812 332.203125 175.367188 C 333.523438 174.914062 334.8125 174.3125 336.070312 173.625 C 321.761719 195.785156 282.507812 224.660156 244.996094 244.9375 C 211.433594 263.082031 141.484375 288.640625 92.230469 269.359375 C 71.371094 261.199219 56.898438 245.621094 49.191406 223.050781 C 48.660156 221.507812 49.550781 220.515625 49.960938 220.15625 C 50.359375 219.808594 51.421875 219.0625 52.867188 219.777344 C 90.265625 238.253906 160.207031 228.089844 199.601562 198.457031 C 240.625 167.597656 249.722656 126.410156 257.757812 90.085938 C 258.515625 86.65625 259.265625 83.257812 260.03125 79.890625 C 261.167969 74.945312 265.179688 73.371094 268.660156 73.972656 C 272.386719 74.628906 276.417969 77.996094 275.507812 85.304688 C 274.484375 93.421875 275.128906 111.917969 281.238281 119.941406 C 285.085938 124.996094 289.570312 126.6875 295.792969 125.4375 C 305.671875 123.460938 321.382812 114.535156 327.59375 110.207031 C 330.890625 107.902344 334.605469 109.347656 336.828125 111.792969 C 339.160156 114.351562 340.585938 118.898438 336.898438 123.246094 C 331.710938 129.367188 326 132.078125 319.949219 134.9375 C 318.78125 135.5 317.605469 136.050781 316.4375 136.625 C 314.503906 137.585938 313.707031 139.949219 314.667969 141.894531 C 315.628906 143.839844 317.996094 144.640625 319.9375 143.667969 C 321.066406 143.113281 322.191406 142.582031 323.316406 142.039062 C 329.632812 139.050781 336.164062 135.917969 342.261719 129.019531 C 343.246094 131.671875 343.390625 134.238281 342.683594 136.757812 C 340.605469 144.128906 331.761719 150.011719 324.1875 153.0625 C 322.171875 153.882812 321.199219 156.164062 322.007812 158.179688 C 322.632812 159.714844 324.105469 160.648438 325.660156 160.648438 C 326.140625 160.648438 326.644531 160.542969 327.125 160.351562 C 330.214844 159.113281 338.210938 155.476562 344.105469 149.234375 C 343.796875 152.078125 342.988281 154.496094 342.089844 156.347656 Z M 321.054688 211.855469 C 320.175781 212.039062 319.304688 212.316406 318.457031 212.726562 C 313.449219 215.203125 307.585938 217.136719 301.117188 218.527344 C 310.625 211.425781 319.652344 203.933594 327.277344 196.378906 C 325.464844 201.539062 323.398438 206.714844 321.054688 211.855469 Z M 325.609375 223.050781 C 317.902344 245.621094 303.417969 261.199219 282.570312 269.359375 C 258.496094 278.785156 229.46875 277.472656 202.171875 271.578125 C 220.554688 265.550781 236.867188 258.273438 248.730469 251.855469 C 259.992188 245.773438 273.5625 237.6875 287.042969 228.527344 C 300.144531 227.453125 312.160156 224.609375 321.933594 219.777344 C 323.367188 219.0625 324.441406 219.808594 324.84375 220.15625 C 325.25 220.515625 326.132812 221.507812 325.609375 223.050781 Z M 191.496094 314.914062 C 188.78125 315.457031 186.039062 315.457031 183.328125 314.914062 C 172.40625 312.726562 147.402344 305.539062 115.917969 283.105469 C 121.289062 283.726562 126.757812 284.023438 132.28125 284.023438 C 150.695312 284.023438 169.664062 280.769531 187.402344 275.988281 C 205.140625 280.769531 224.105469 284.023438 242.519531 284.023438 C 247.996094 284.023438 253.417969 283.726562 258.742188 283.113281 C 227.339844 305.457031 202.394531 312.726562 191.496094 314.914062 Z M 73.726562 218.550781 C 67.238281 217.148438 61.363281 215.203125 56.347656 212.726562 C 55.515625 212.324219 54.667969 212.050781 53.820312 211.863281 C 51.496094 206.769531 49.449219 201.628906 47.667969 196.511719 C 55.273438 204.023438 64.257812 211.488281 73.726562 218.550781 Z M 38.75 173.636719 C 40.011719 174.3125 41.289062 174.925781 42.601562 175.367188 C 43.011719 175.507812 43.441406 175.570312 43.859375 175.570312 C 45.496094 175.570312 47.023438 174.535156 47.574219 172.898438 C 48.269531 170.839844 47.164062 168.609375 45.109375 167.914062 C 40.152344 166.246094 35.28125 161.703125 32.703125 156.347656 C 31.8125 154.484375 30.984375 152.070312 30.675781 149.214844 C 36.582031 155.46875 44.585938 159.113281 47.675781 160.351562 C 48.15625 160.542969 48.648438 160.648438 49.140625 160.648438 C 50.707031 160.648438 52.171875 159.714844 52.792969 158.179688 C 53.601562 156.164062 52.632812 153.882812 50.613281 153.0625 C 43.039062 150.011719 34.195312 144.128906 32.121094 136.757812 C 31.414062 134.238281 31.554688 131.671875 32.539062 129.007812 C 38.640625 135.917969 45.167969 139.050781 51.484375 142.039062 C 52.609375 142.582031 53.738281 143.113281 54.863281 143.667969 C 56.808594 144.628906 59.160156 143.839844 60.132812 141.894531 C 61.097656 139.949219 60.296875 137.585938 58.363281 136.625 C 57.195312 136.050781 56.019531 135.5 54.851562 134.9375 C 48.804688 132.078125 43.089844 129.367188 37.914062 123.246094 C 34.21875 118.898438 35.640625 114.351562 37.972656 111.792969 C 40.195312 109.347656 43.910156 107.902344 47.207031 110.207031 C 53.417969 114.535156 69.128906 123.460938 79.007812 125.4375 C 85.242188 126.6875 89.714844 124.996094 93.5625 119.941406 C 99.671875 111.917969 100.316406 93.421875 99.292969 85.304688 C 98.382812 77.996094 102.417969 74.628906 106.140625 73.972656 C 109.632812 73.371094 113.632812 74.945312 114.769531 79.890625 C 115.539062 83.257812 116.285156 86.65625 117.042969 90.085938 C 125.078125 126.410156 134.175781 167.597656 175.199219 198.457031 C 176.703125 199.59375 178.269531 200.6875 179.867188 201.761719 C 152.40625 216.726562 118.402344 222.808594 90.585938 220.871094 C 67.699219 205.070312 48.003906 187.957031 38.75 173.636719 Z M 116.152344 59.519531 C 139.878906 59.519531 162.609375 70.421875 178.507812 89.417969 C 180.746094 92.101562 183.992188 93.644531 187.402344 93.644531 C 190.808594 93.644531 194.054688 92.101562 196.296875 89.417969 C 212.191406 70.421875 234.925781 59.519531 258.648438 59.519531 C 287.738281 59.519531 312.089844 76.328125 325.375 102.457031 C 324.597656 102.816406 323.828125 103.246094 323.101562 103.757812 C 317.1875 107.882812 302.476562 116.082031 294.238281 117.738281 C 290.972656 118.394531 289.53125 117.84375 287.492188 115.179688 C 283.460938 109.890625 282.304688 94.28125 283.308594 86.285156 C 284.800781 74.382812 277.460938 67.546875 270.019531 66.226562 C 262.917969 64.976562 254.546875 68.652344 252.375 78.128906 C 251.597656 81.527344 250.839844 84.945312 250.082031 88.386719 C 241.964844 125.097656 233.574219 163.0625 194.871094 192.171875 C 192.488281 193.972656 190 195.683594 187.441406 197.308594 C 184.863281 195.671875 182.335938 193.984375 179.929688 192.171875 C 141.230469 163.0625 132.835938 125.097656 124.71875 88.386719 C 123.960938 84.945312 123.203125 81.527344 122.425781 78.128906 C 120.257812 68.652344 111.882812 64.964844 104.78125 66.226562 C 97.339844 67.546875 90 74.382812 91.496094 86.285156 C 92.496094 94.28125 91.339844 109.890625 87.308594 115.179688 C 85.28125 117.84375 83.828125 118.394531 80.554688 117.738281 C 72.324219 116.082031 57.617188 107.882812 51.699219 103.757812 C 50.960938 103.246094 50.207031 102.816406 49.417969 102.457031 C 62.714844 76.328125 87.0625 59.519531 116.152344 59.519531 Z M 350.5625 137.433594 C 351.710938 131.863281 350.421875 126.214844 346.703125 120.585938 C 347.75 115.191406 345.792969 109.960938 342.640625 106.5 C 340.074219 103.675781 336.890625 101.976562 333.59375 101.414062 C 319.34375 71.269531 291.8125 51.660156 258.648438 51.660156 C 232.589844 51.660156 207.65625 63.585938 190.265625 84.382812 C 188.75 86.183594 186.050781 86.183594 184.535156 84.382812 C 167.144531 63.585938 142.210938 51.660156 116.152344 51.660156 C 82.980469 51.660156 55.382812 71.269531 41.136719 101.433594 C 37.871094 102.007812 34.707031 103.695312 32.160156 106.5 C 29.007812 109.960938 27.054688 115.191406 28.097656 120.585938 C 24.390625 126.214844 23.089844 131.863281 24.238281 137.433594 C 21.332031 146.441406 23.03125 153.914062 25.25 158.898438 C 25.425781 166.246094 29.152344 174.238281 35.230469 182.4375 C 37.75 192.519531 41.300781 203.03125 45.894531 213.390625 C 45.515625 213.65625 45.140625 213.933594 44.769531 214.238281 C 41.546875 217.074219 40.367188 221.527344 41.75 225.601562 C 50.246094 250.453125 66.265625 267.636719 89.367188 276.6875 C 92.28125 277.820312 95.28125 278.792969 98.320312 279.65625 C 137.082031 310.832031 168.832031 320.03125 181.78125 322.621094 C 183.644531 323 185.527344 323.1875 187.410156 323.1875 C 189.292969 323.1875 191.175781 323 193.039062 322.621094 C 205.96875 320.03125 237.699219 310.8125 276.429688 279.664062 C 279.488281 278.804688 282.5 277.832031 285.4375 276.6875 C 308.535156 267.636719 324.566406 250.453125 333.050781 225.589844 C 334.433594 221.527344 333.246094 217.074219 330.03125 214.238281 C 329.664062 213.921875 329.273438 213.644531 328.886719 213.378906 C 333.511719 202.992188 337.09375 192.4375 339.632812 182.324219 C 345.660156 174.167969 349.375 166.214844 349.550781 158.898438 C 351.773438 153.914062 353.46875 146.441406 350.5625 137.433594 "/></g></g></svg>